/* XPM */
static char *result[] = {
/* columns rows colors chars-per-pixel */
"48 48 8 1 ",
"  c #719836",
". c #9893A0",
"X c #098143",
"o c #28472C",
"O c #DC6A61",
"+ c #C2CCD2",
"@ c #F3DE77",
"# c #ABAEB1",
/* pixels */
"X X  XX  X   X X X XXXXoX XX X XX XX X    XXXXXX",
" X#XX   X   XX ooX X#.##..##  XXoX X@    XXX # X",
"   X X   XXX  XXX .####+@@@@@#. X  X  XXX X # X ",
" XXXXXX   X XoX..#+#++++@@@@@OOO..X X  XXX  X   ",
"X X  XXXXXX X..#####+++++@@@@OOOOO. X  XXX  XX X",
"X#X  X    oo.#.####+#+++@@@@OOOOO....XXXX @X X  ",
"#X X X Xoo.#....####++++@@@@OOOOOO...## X XX X  ",
"X  XXXX o ...#.#####++++@@@@OOOOO...++##X XX @X ",
"XXXX  oo.#.....#.####+++@@@@OOOO...#+++# X X  XX",
"XX oXXo .....#..####++++@@@OOOOO...+++++.XXX   X",
"   oXoo........#..###+++@@@OOOO...+++++#.#    XX",
"X  Xoo##........#####+++@@@OOOO..#++++#...#     ",
"XoXoo........#.....###++@@@OOO..#+++#......#X# X",
"X  o .#..........####+++@@OOO...+++##....OO.XXX ",
"X oo....#.#........####+@@OOO..+++#.....OOOO XX ",
"Xooo###...........#.##++@@OO..#++#....OOOOOO.X #",
" oo###.##.#.#.#....#..ooooO..+++....OOOOOOOO.X X",
"Xoo##.##.#........#oooO..ooo.++....OOOOOOOOO@  X",
"Xo.#####.####.#...oo.....#.oo....OOOOOOOO@@@@#XX",
"oo.########.#.#.#oo#.......#.o..OOOOOO@@@@@@@@ X",
"oo#+###########..o#..........ooOOO@@@@@@@@@@@###",
"oo##++#+########oo#....#......oO@@@@@@@@@@@@@+# ",
"oo++#++#+++++###o.....#o......o#@@+@@+@+@++++##X",
"o +++++++++#+#+#o....#ooo.....o.++++++++++++++#X",
"oo++++++++++++++o....#ooo.....o.+++++++++++++#. ",
"oo+++@++@+@+@@@@o.............o..##++++++++++##X",
"oo@+@+@@@@@@@@@@Oo#...........o########+#+#++# X",
"oo@@@@@@@@@@@@OOOo..........#oo.###########+#..X",
"oo#@@@@@@@@@OOOOOoo.#......#oo#..#.##########.  ",
"oo @@@@@@OOOOOO..#.oo#.#.#.oo.....#.#########. X",
"ooo@@@OOOOOOOO..#+.Ooooooooo.......#...#####. XX",
"oooOOOOOOOOOO..#++..OO .o..##........#.#.#.#.oX ",
" oo OOOOOOO...#++...OO@++###.......#...#..#.. X ",
"XoooOOOOOO...#++#..OO@@++###.#.......#...#..X   ",
"oooooOOOO...+++#..OOO@@++####.#........#.... oXX",
"  oooOO....#+++...OOO@@+++###...#........#  XX X",
"X oooo....++++...OOO@@@@++#####.........#o. oXXX",
"X Xoooo..#+++#...OOOO@@+++###.#.#..#...#. o XXXX",
"XXooooo.++++#...OOOO@@@++++####..#......ooXX  X#",
"X Xooooo.+++...OOOOO@@@+++####.#.....#.oo.XX  X ",
".  XXoooo.+....OOOOO@@@@+++####.##.#..ooX  XX  X",
"  X XXooooo#..OOOOO@@@@++++#####..#. o oX X @XX ",
"  X   Xooooo...OOOO@@@@+++#+#####...oo  X XXXXX ",
"X X X ooooooooOOOOO@@@@++++#####..oooo XXXX  XX ",
"XXX XXo XoooooooOOO@@@@+++++##..oooXX X XX X XX ",
"X X X     ooooooooo  @@++#.. oooooX XX  X X     ",
"XX  X X XXX ooooooooooo oooooooX X   XXX   XXXXX",
"  X X XXX   XX ooooooooooooooooX XXXX X  XXX X  "
};
