/* XPM */
static char *result[] = {
/* columns rows colors chars-per-pixel */
"48 48 8 1 ",
"  c #038848",
". c #C7910A",
"X c #0C592B",
"o c #F6CA02",
"O c #508034",
"+ c #76A23C",
"@ c #F9EBAB",
"# c #ABBB45",
/* pixels */
"X# O+  +O +++ OX+ +    X O  + O X+  + ++O#      ",
"+ #X O#+ ++OX + X + #    + ++# XO + #+#++  X+#+ ",
"+++ O .O+   #+X     X+ +O  O+ O OO# +O   + +##XO",
"OO O X +.O + O O+OO# # ####@#++++  + #+   ++ ++#",
" O #+      #  O X+###@ooooooooo#@# +X+O   #OX + ",
" # X# ++++ O+ + ++#ooooooo.ooooooo#+     +# + O+",
"# + + +X # O+#  #ooooo.........ooooo# +O +X + O+",
" ++  O ++    ++#oooo.......o......ooo@O# #  ##O+",
"  XO++  ###  +#ooo.......ooooooo..oooo##  O +#  ",
" X+ O XO#X + +#ooo.......ooooooo....oo@O    ++O ",
"+#OO + #+   ++@ooo...o...ooo...oo..oooo+ O+OO+XO",
" O+ + #O.OXX.+oooo...oo.ooooo.......oooo# +##O++",
" XO +#++ X    #ooo...oooo.ooo......oooooo##+ +#X",
"O## X#  O+# X #oooo...oooooo.......ooooooo@#X  +",
" +X  ## +O+  O.ooooo.............ooooo..ooo# X #",
"  +O++  +O + +#..ooooo.........oooooo..Oooo#  +#",
"#O +++ +   ++++...oooo@@@oooooooooo.....ooo@  + ",
"  ++ +      +XO.....oo@@@@ooooooo......O.oo#+X+ ",
"+ X  O #  +O+XX#......#@@...............ooo++O  ",
"   O+ O###ooo##oo....................O.oooo#+++ ",
" X XX++#ooooooooo....................ooooo.+O ##",
"O   #+oooooooooooo............o..o.oooooo..+ +X+",
".+O #ooooooooooooo.......ooooooooooooo.....+X+  ",
"++X+oooo.o.oooooooo........o.oooooo.......OX O+ ",
" X #ooo.....oooooooo.....................OXX+  +",
" ++#o.........ooooooo..................+XXX   + ",
" X#.oo....o....oooooooo................XXXXO    ",
"X++#o....oooo..oooooooooooooooo......O.XXOX  OXO",
"  #.oo...ooooo..ooooooo.ooooo....O.O..#OX+# O  +",
"++ #o....oooooo..oooooo.O.O.O..O...O...O+    O+O",
" +OOoo....ooo.....ooooo.O....O...O....#O XOO O  ",
"+X Ooo.....oo.....oooooo..O.O..O....... +     X+",
"#+O+.o.....ooo....ooooo...............# O# + + +",
" # XOoo..oo.ooo....oooooo.............o X ## +OO",
"OO+OO.o..ooo.oo....ooooo............oo#+ #+ .   ",
"#+  O.o....oo.o....oooooo..........oo..++#O+  + ",
" #+ XO.o...oooo....ooooo........oooo...+O  #OX X",
" + X XXoo...ooo....ooooooooooooooo....+X  O#X  X",
"X O+OXX+oo........ooooooooooooo.......OX O  #+ #",
" + X #OX.ooo......oooooo............+XX X#  # ++",
"##+ + XXX+.ooo...oooooo............OOXOO O#  O+ ",
"++ #  OOXXOo.oooooo.oo...........OXXXOO  + ##X O",
"O+ O++ XXOXO.oooo.o#XXOOOO+OOOOXXXXXXX#+ +     #",
"O+ # + OOXXXXOO.##OOXXXXXXOXXXXXXXOXXX+  X +.  +",
"   + OXOOXOXXXXXXXXXXXXXXXXXXXXXXOOOO+ #O O +X +",
" + # O+#.+XXOXXXXXXXXX.XOOOOO.XOOX #  #+ + O+++O",
"  ++ + +   +OOXXXXXXXX.#XXOOXOX + O.+   +++ OX O",
"++ + OO  #+O X. OXO+#O O. OXOX ++ O  +XOO   + #+"
};
