/* XPM */
static char *_2ee7cd597fc4402bd8a915c1718fd00P8D7gXju0oczr1Ax[] = {
/* columns rows colors chars-per-pixel */
"48 48 8 1 ",
"  c #8CAB19",
". c #03733B",
"X c #029167",
"o c #5B852D",
"O c #038F38",
"+ c #78A45E",
"@ c #44A044",
"# c #9ABE5A",
/* pixels */
".#Xo .Oo@O @ Oo.oO@XXOO.O@OX+OoO.@OX+O +o#XO..X.",
"@X+..o @@ooo.X@..O X#.OOX O@+ X...+@ o# @O..## .",
"  oXoO o O.X#o.XXOOX.o.o@.Xo@OoXo@+.+@OOO+. +#.o",
"@oOo...  oO Xo.oooo#O#OO+oX+ oo+ O. X# O.X  X o#",
"X@.#+OOO@.X OXo..+ +OO# .oX+@O+o+ O@. @..O+o..+.",
"X+O. O++ @.@oO+O .X.OX .X...@ +ooX..O.XO.+ X+.o ",
"#Oo@ O@.. X@  ...+# X .OO+ .+++OXOX XX+@X .. X+@",
".@ .OXO+ O..X++..  Xoo.@XOX+@O o#+O+.@o#. O. #o+",
"OO.oo ..#  .X  X.. @X#  O.@O .@oXooO o #.XoX  OX",
"..@.oX.o O.#.@o X.o..  # @oO@O @+oXX..XoO.OO +o.",
"+ ooX+.#+OX. o+@OOo.O. @@XooOOXO.@XX#@.OOo@@oo.o",
"@o+.+X#o o.. @.X+@O@@ OOO#@oXO #O   .+o XX +#o  ",
"..@.+   ......XOo#O#.o#+OO@+O..O #X.XX@ X.+ X+ .",
"o  .. @Xo+#..X.OO#+.O o@oO+O+ #+OO#O.. oOo@ ..O ",
"O#.O@ #Ooo+X.OO#OO+@X .O+O#+.O O OO.+@. @..@..O ",
"OOoo @XO+o.oX ...# @@oO.+XOO# .@o Oo.O#oO +.XX+#",
" oOo@#.@XOX++ O#.++OOOXX @.Xo#o+oO # .@+o.o@X.+.",
"@X oO OOO.XO .@.O Oo  oX++OoX.XO.# OO+@oXoX@#.@O",
"@..X.oO @.o.o..##.   X.  XOoX oo Oo@ XX@#X..+oOO",
".O.o O.# X  Oo@..o@. +oo.@.O+#O#O.   +XO O.# + X",
"O.X..o@OO..O.+ o X@oo .o++XO  @#O.++@@ O . .oO+#",
"@... .OooOO.. O @O. +  ..XOoX O# X  XOX# @. O+. ",
"  @O@o@X.OO.#.@O@o. o.+. ..++ @  o@#OXX.O o#. .O",
"+o.XX.XO..oO@X#OXO+@.@..X#+  X +X+oX  . O+ OXo@X",
"..O.@o+XXo o##oO@X  O.X   X@.+..X+++Xo+O.OXX+.. ",
"O@o+O.Xo..X  o.X#X O. #oOooO@O+X. @O@O.o..@X.O@O",
"..o+.+  OXX .X XO.+ . O.OOO.oXoXO+.o+ @.#oXo.XOO",
".@ X@o+O @ O +.OoO X .++.o+#.XO.O.oo . @.@.X.o..",
"OO@o@@OXX oX+ . O o.@X+ O.X@.OoX.oOXo oXO##.o.@@",
"++O@ +oO +O.XX  Oo.+O.o OX O.ooO@ XoXOX@ X.O.ooo",
"@+ OXOXoX O .o.XO+@O+ooo.o..X  O o..X.#oX.ooO@O.",
" .O@#XOO+.o. X o#X+X.@ .o##XX.#.o O@.o#. ..OO..o",
"# +##..@@O .@X.o @#OOOXoOX@.@XO.XO .@ ..@ O . O+",
"O .OXo+o+o.X XX.+o.@@+OoX.+.X #OXO+ +XoX.O##Xo+o",
"oo+  .O@O.O+Xo..o.#Oo++.X@X#@# o+@..O  +O +O .X.",
" @XO  o.Xo@O. ooo +@ +.@@..#..##Oo.+oX#+ #o .@oX",
"@ oXo X@X@X+@.## oOoOX  .#.. +@o..#XO# +oOX+o.X.",
"O X.X.. X..XXo ++ XO.OO.X.+ . .@#+O.X+X.OXo#..O.",
"..oo@.o+ +.oXOX##.++OXX. o@X@ .oOXOX@ooO.OO.# O#",
".+O.O# O@@ .@o.#O@  .O.++@. O.O +.o +..O.#OO @@ ",
"##@.+XO  . O. #o OO#O.o o#X. #O.O+OX#X @Xo#XOo@O",
"++X#XX@ooO.+#o.#..O@.#OO+o OOO+@o@O .# OX X #.Xo",
"o .o +XXO OX OXOo O#X.OOOO+.o.X+.oo o.+ .@XOO.X ",
"o@. .oOoo.OOXoO@+@  oX O#.##XX  .+ oO.+O...  .X ",
"OXX .o.o@@o X.X@++O.oO.o@@+OX@X.++o@ooO#@XoO+..+",
"O X Ooo# o.X +oXO @..o# @   # O@@XX#OX  O Ooo@#o",
"X.++O#.+OXO#@@o+XOo.O. #.o@oOo.X X@  X.O  @Oo..@",
"@ X@O@...#ooX. XoXO #@Xo Xo.o.. @.@.O+.ooX.X@O  "
};
