/* XPM */
static char *b3b4922cf4aa4be5ff9f783cac38f43elSGWwTOyUtNH1KRT[] = {
/* columns rows colors chars-per-pixel */
"48 48 8 1 ",
"  c #4C5647",
". c #EECEE0",
"X c #8CAB20",
"o c #588E36",
"O c #C45693",
"+ c #05924D",
"@ c #83AB6B",
"# c #037139",
/* pixels */
"#X+oX#+oo+XoX+o#o+@+#++#+o++@+o+#o++@+o@oX++##+#",
"@+@##oXX+oXo#+o##+X+@++++X+o@X+# +@+XXXXo+##@@X#",
"XXo+o#XoX+#+@o#++#++#o#o+#+o@#o+ooX#@o++#@@@.@#o",
"+o+ ###XXo+o+o#oo o@+X++XX+@ooooX+#o+X@@O.O..@oX",
"+o+@X++++#+X++ + XXX++XX#o+oo+oo@X+o OO.OOOOO@@+",
"+@+ X+@oXo+oo+o+X#+#++X#+###oX@oo+# OOOOOOO O oX",
"@#o+X+o##X+oXX+##@@X+X#++@X+@o@++## OOOOOO #o+oo",
"+oX++#+XX+#++@@##XX+oo#@+++@o+Xo@o# OOOOO.##X@ @",
"++# oX#+@XX#+oX+##Xo+@XX##o+X+oo#   OOOOOO #XX++",
"##o+o+#oX##@+ooX+#o##XXXXoo+X+Xo    oOOOO#++Xoo#",
"@Xo +@+X@++#Xo@o#+o##+Xo@+oo##+#   @   # ooooX#o",
"+oX+@+@oXo #Xo#+@o#@O..++Xoo++o         +#o@Xo@X",
"##o#XXXX######+#o@OOOOO@+++@##    @  #oX+#@X+@X#",
"oXX##X@+ @X+#+#+ OOOOOooo+X+o       ##X +ooX##+X",
"+@#+oXX+oo@+#+#oOOOOOo##@+o         oo+Xo##+##+X",
"++ooXo++@o#o#X# OOOOO +#@#+       # #+Xo+X@+++@@",
"X +oo@+o+++o@o#OOOOOo#++X##       XXX+o@ #oo+#@#",
"++XX+X+++#++o# OOOO.oX +          o++@+X+o+o@#o+",
"o##+#o#X+#o#   OOOO.@##@        o#ooX+++@+##@o++",
"+#+oX+#@X+XX#  OOOO..O@O        ##XXX@++X+#@XXo+",
"+####Xo++#### OOOOOOO.O        X+#@oo@X+X#X#oo@@",
"o###X#+oo++##OOOOOO..O        #@X+XX+++XX@#X+o#X",
"XXo+oo++###  OOOOO...@       o+XXo@@+++#+Xo@#X#+",
"@o#++#++##oOOOOOO......      +X@#oo+XX#X+@X++o@#",
"##++ooo#oOOOOOOOO.......   ##@##@@@@+o@+#+++o#+X",
"+ooo## OOOOOOOO..........O.#o+oO.@o+o+# + ++++o+",
"##oo#OOO.OOOO..............oo# OO@#ooXo#Xo+o#++#",
"#oo#OOOOOOOO................O@OOO. oX+Xo#@#+#o##",
"+#oOOOOOOOOO................O.OOO ++oXo++X@#o#oo",
"@o OOOOOOOOO..................OOOX+ +++@X+++#ooo",
"   OOOOOOOOO.................OOOoo#++#@o+# o+o+#",
"o OOOOOOOOOOO.............OOO O##X++#X@+X#+++##o",
"  OOOOOOO @OOO..........OOO  ###++X#Xo##oX#X#X+@",
"#  OOOOOO @ OOO.........OO ##X@+++@X@+o+#+@@+Xoo",
"   OOOOOOO@ @OOO.......OO##ooXXooo##+XX@+XX+X#+#",
"X   OOOOOOO @ OOO...#@..@##@##@X+o#@ +X@X@oX#oo+",
"+   OOOOOOOO @oOO...@..O @##Xo@o##@++@XXo++@o#+#",
"#o#  OOOOOOOOO oOO...... +@X#X+oX@+#+@+#++o@##+#",
"##    OOOOOOOOO OO..@..O@o++oX#o++++@oo+#o#+@X+@",
"#X##   OOOOOOOOOOO.@ .OO@o#X+#+X@#oX@##+#@++Xo+X",
"@@o#    OOOOOOOOOO....O@o@+#X@+##@++@+Xo+oX++oo+",
"@X#X##   OOOOOOOOOO..OO#@oX+++@ooo+X#@X++X+X@#+o",
"#X#oo     OOOOOOOOOOOOo#+#X#o#+X#ooX +@X#o+++#+X",
"oo+X#o#     OOOOOOOOO X#X+@@++Xo#@Xo+#X+###XX#+X",
"#++X#o# #     OOOOOO ##X+@X++o+#@@oooo+@o+o+@#+o",
"+X+X+ooXo #         # XoXXoX@X+X+#+@++XX+X+oooXo",
"++X@+@#X###      # ###XX#ooX+o#+X+oXX+#+XXo#o#+o",
"oX+o+o###XXo##o# ##oXo+@X+o# ##X@#o++o#oo+#+o+XX"
};
