/* XPM */
static char *_ea4ff51042c4a87efe852e4f5c2381ftg8xemB8LmD3PqWK[] = {
/* columns rows colors chars-per-pixel */
"48 48 8 1 ",
"  c #EAC9DC",
". c #384936",
"X c #87AA20",
"o c #56883C",
"O c #059350",
"+ c #C45592",
"@ c #8BAA75",
"# c #037339",
/* pixels */
"#XOoX#OooOXoXOo#oOoOOO##OoOO@OoO#o#O@OX@oXOO##O#",
"oO@##oXXOoXo#Oo##OXO@#OOOXOo@XO#.O@OXXXXoO##@@X#",
"Xo@@@#XoXO#O@o#OO#OO#X#oO#OoX#oOooX#@oOOO@#X@@#o",
"#+++  @@@oOXOo#oooo@OXOOXXO@XOXoXO#XOXXO#OXXOXXX",
"#.++++    @XO#oO.XXXOOXX#oOooOoo@XOo#Xo###@o##@O",
"#o..+++++  @oOoOX#O#OOX#O###oXXooO#OO#OO#XXOX#oX",
"o....+++++ @XXO##@@XOX#OO@X#@@@OOO#XOO@oOX#OX#@o",
"#o#...+++++ #@@##XXOoo#oOOO@oOXo@XOoOoo@OXO#X@oX",
"O##..++++++@@oXO##XoO@XXO#oOX#XoOooOXoX@#OoOXXOO",
"##o#...++.@@ @oXO#o##XXXXooOXOXO@.OO#OOoO#O#XXo#",
"oXo.#.......@ @o#Oo#O#XoXOooO#OOOXOO@o##OoXooo#o",
"OoX#@#o....+oo@@@OOooXO#++ @#OXXOXXX#XoXOOo@XoXX",
"##o#oXo.......@ @@O@O.Xo+++  O#OX@O#OO@XO#XXO@X#",
"oXX##XoO.....+.+@ o#OXo...++  @XOOXo##XoOooX##OX",
"O@#OoXX#o.......o@@oOo##..+++  OXOO#@o#Xo##O##OX",
"OOooXXOO@.#......+@@Xo##...+++ @oXOo#OXoOX@OOO@@",
"Xo#Xo@#oOO#.......@@@#OOo..++++ X#XXX#X@o#ooO#X#",
"OOXXOXOOO#O#.......+@@o#o...++  o@XOO@OoOoOo@#oO",
"O##O#o#XO#o#........+@@@o#.++++ @#oXXOOOXO##@oOO",
"#O#oXO#XXOXX#........@+ @+++++++ #XXX@OOXO#@XXXO",
"O####XoOO#o##oo.........+ ++++++ o@oXOXOX#X#o#@@",
"o###X#OoXOO##X#..........+  +++  @XXOOOXX@#XOX#X",
"XXoOooOO##O#X#o#.........    ++++  @#OO#OXX@#X#O",
"@o#OO#OO##oOoO@###......      +++   @X#XO@oOOooO",
"###OoooOOoXoX@XOo#.....       +++++   @##OOOo#OX",
"Ooo@#oOo##OXX++@@#o..+          ++++ +  o#oOOOoO",
"##ooOoXXOO#o.o+ @.o.+             +++++   Oo#OO#",
"#XXOooXOXoX#o.++ @+++              +++++   O#o##",
"O#XooOOOOXo#o.+++ +                +++++++  o#oo",
"@@OOX@o#X@O##..++                  ++++++++ oooo",
"OoXOOOOXOX#X....++                 ++++++++ @@O#",
"X#Oo@OOOo#o#X#....+++             ++++++++++ +#o",
"@XX@@##XOOX#o##......+           ++++@+++++++@O@",
"OXOOOXoo@o#OXO##o.....++        +++@oo++++++@+oo",
"ooXXX#Oo##OXOo##.#o#..++       +++.@.++++++++#O#",
"XoOOXXo#OooO#XooXo@o...+ @o@  +++@o+++++++++OoXO",
"OXoOoXOoOoO@o#@@Xo#o##.+  @   ++ooo+++++++++.#O#",
"OXO#O##XO##OOoXX@XO##..+@    ++o@++++++++++X####",
"##oXo#X@X@#oOOO@X#X@##.+  @  ++o.+++++++++.#@XO@",
"#XO#OX@#OoX#oo#@oOXX##..+ o@ +++++++++++++#OXoOX",
"@@o#XOOXX#XOOX@oXOO@#...+    +++++++++++.oXOOoXO",
"X@O@OOoooO#@XoOXO#Oo#X#..++ +++++++++++.#oOX@#Oo",
"OX#Xo@OO#X#OXOOOoXOX###...++++++++++++.o#oOOO#OX",
"oX#X#XOoX#OOOo#O@oXXoOX#..++++++++++..o####XX#OX",
"#OOX#o#ooOXXOOoo@XO#o##o....+++++++..oOXoOoO@##X",
"OXOXOooXXo#OX@oOOXX##oXoo..........o#OXXOXOoooXo",
"O#X@O@#@#OO@oooXOOo#O#XX##o......#oXXO#OXXX#o#Oo",
"oXOOOo###@XoOOXOoO#X@oOXXO.#.#.oo#o#Oo#ooO#OoOXX"
};
