/* XPM */
static char *e1a3545c6a4d45f6be2b52cadf222357xlThSA91lMAxXslN[] = {
/* columns rows colors chars-per-pixel */
"48 48 8 1 ",
"  c #EF9E1C",
". c #161F16",
"X c #EFDEB5",
"o c #558138",
"O c #05914D",
"+ c #88A921",
"@ c #056D37",
"# c #84AA6B",
/* pixels */
"@+Oo+@OooO+o+Oo@oO#OOOO@OoOO#OoO@oOO#O+#o+OOO@@O",
"#O#@@o++Oo+o@Oo@@O+O#@OOO+O+#+O@@O#O++++#O@@##+O",
"+o+OoO+o+O@O#o@OOOOO@+@oO@O@#OoOoo+@#oOOO#@+##@o",
"O+Oo@@@++oO+OoOoooo#O+OO++O#+oo#+O@+O++O@O++O++#",
"OoO#+OOOOOO+O@oO@+ +OO++@oO#OOoo#+Oo@+O@@O#o@@#O",
"O#O@+O#+++@ooO#@+@OOOO+OO@@@o++#oOOOOOOO@#+O#@o+",
"#Ooo+OO@@+Oo++O@@##+O+@OO#+O###OOO@+OO#oO+@O+O#o",
"O+oOOoO++OOOO##@@++Ooo@#OOO#oO+o+#OoOoo#O+O@+#o+",
"OOooo+@O#++@O++O@@++O#++@OoO+O+oOooO+o+#@OoO++OO",
"@@o@oO@o+@O#Ooo+OOo@@++++ooO+O+O#oO#OOOoOOOO++o@",
"#+ooO#O #OO@+o#o@Oo@OO+O+O+o@OOOoXXXX#@OOo+ooo@o",
"Oo+O#O#o+o@@+O@O##Ooo+OOO+#oOO+XXXXXXXo+OOo#+o++",
"@@o@++++@@@@O@OO+#O#Oo++OOO#OOoo XXXXO#+O@#+O#+@",
"o++O@+#Oo#+O@O@OO+#@O+oooO+Oo#o#    X#+oOoo+@@O+",
"O#@OO++Ooo#O@OO#OO+OO+OO#O+#.@.o.  XXoO+o@@O@@O+",
"OOoo++OO##o####oO###+oO@#OO@oo..o  +@O+oO+#OOO##",
"+oO+o#O#..............o.@#O@oo.o.o  +O+#oOo#OO#@",
"OO++O+@o..................OoO@@..#  ##OoOoOo#@oO",
"O@@O@o@o.................oOoO+o@.o  XOOO+O@@#oOO",
"O@Oo+@..o............o..@#@O##Oo.@+  XOO+O@#+++O",
"O@@@@o@@#XXXXXXXXXXXXXXXX#OO++o+@.    XO+@+OoO##",
"o@@@+@@#XXXXXXXXXXXXXXXX#OOoO+Ooo.#   XXX#@+O+@+",
"++o#X#XXXXXXXXXXXXXXXXX #@@##+O+o.+   XXX++#@+@O",
"#ooXXXX                OO+#++O+#.o     XXX#OOo#O",
"@@XX                  #+++OO@#@@@o      XXXXXO@+",
"@@XX                  #oO+oO#O+O.#       XXXXX#O",
"@.oX                  #@OOO@oOo@@         XXXX#O",
".@#                    #@oo+OO@@#           XXX#",
"@@X                     #oO#o##             oo#+",
"o#                                        ....#o",
".##                                    o......oO",
"@.oo......o.oo                      .....o##...#",
"oo.o...........oo+             +oooo..o#X#XXo..#",
"@o.@...X###o#...oo.@@o.@@@o.@oo....o..#X#X#X...#",
"o@o.#..#XX#XX.....o@.@o.@.@o.oooo@.....#X#X#..o@",
"+o@.o...o###...#oooooo@oo@@#@@o#@o.@o..o###...#O",
"O+o..#........##+o@o@O++@#@@+o+o@@o.@........oO@",
"O+@.@.oo.....o+##+OO@O@@O@#+@+Oo+#@..oo.....o@@@",
"@@@o@...ooooO@O#+@##OOO@+oOOo+OoOO@@@...@oo@#+O#",
"@+O@@oo.@.o.oo@#oO++@O@#++@+O@O+#@ooo.@@.o@@+oO+",
"##+@o@@oo@oOO+#o+OO#O@o+o#OO+#OO@#O@#Ooo@o#OOo+O",
"##O#OOoooO@#+oO#O@OOo+OO#o+OOO#o+OO+@#+@OoO+#@Oo",
"o+Oo+#OO@+OO+OOOo+O+O@OOOO+@o@O+@oo+o@#+@#OOOOO+",
"ooO+@+Oo+@OOOoO#o#++oO+O+O##OO++@#+oO@+O@@@++@O+",
"OOO+@o@ooO++O@OO#+OOoO@+O#+OOOO@##+OooO#oOoO#@@+",
"O+O+Ooo#++@O+#oOO++@@o++++++# O+OOO#OO++O+Oooo#o",
"OO+#O#O+OOO#O+o#OOo@O@+#@oO+Oo@O+Oo++OOO+++Oo@Oo",
"o+OOOoo@@#+oOO+OoOO+#+O++Oo@o@O+#@#OO+@ooO@OoO++"
};
