/* XPM */
static char *_cf948c36f8d4420a4346e07610e8801xzokVS16mHCll6mT[] = {
/* columns rows colors chars-per-pixel */
"48 48 8 1 ",
"  c #EF9E1C",
". c #101810",
"X c #ECDBB5",
"o c #517033",
"O c #048F4B",
"+ c #93AC38",
"@ c #036D37",
"# c #5F9E4D",
/* pixels */
"@+Oo+@Oo#O+#+Oo@#O#OOOO@O#OO#OoO@#OO+O#+#+OOO@@O",
"#O+@@#+##o+o@O#@@O#O+OOOO+O##+O@o@+O+#++#@@@+++O",
"++#O#@+o+O@O+#@OOOOO@oOoO@O##@#Oo#+O+#OOO#O+++@o",
"O#@o@@O++oO+O#@o#oo+O+OO++O#+#o#+O@#O++O@O++O+#+",
"OoO++OOOOOO+O@oOo+++OO++@oO##O#o++O#@+OO@O+o@@+O",
"O#Oo+O#++#@##O#O+@OOOO+OO@O@##+#oO@@O@OO@++O+@#+",
"+O#O+O#@@+OO++O@@++#O+@OO#+@##+OOOO+OO##O+@O#O##",
"O##@OOO++O@OO##O@+#O#o@#OOO##O+#+#O#Ooo+O+O@++o#",
"OOooo+@@+++@O++O@@+#O+++@O#O+@##O#oO+o++@OoO++OO",
"@@#OoO@#+@O+O+#+O@o@@++++##O#O+##oOO@OOoOOOO+#oO",
"#+#oO#O++OOOXXXX#O#@O@+##Oo#@OOOO#OO+#OOOo##o+@o",
"#o#O#O+o+o@oXXXXXXO##+OOO+##OO++O+++@##+OO#++o++",
"@@#@++++O.@#XXXX o#+Oo++OO##O@@O++O@OO#+O@++O#+@",
"#++@@+#Oo#o@X    +o#O+o#oO+O++++OO+O@O+oO##+@@O+",
"O+@O#++Oooo.#X  o###O+OO+O+#@O#O+OO@##O+o@@O@@O+",
"OO#o+#OO#o.@.+ oo####oO@#OOOX+O##+#+##+##++OOO++",
"+oO##+O#OO@oo  o@#+OOOO#oo.o.o...........#o#OO#@",
"OO+#@+OOO@O@o  oo+Oo++oo.................#O##@#O",
"#@@O@oO+#@o.X  X+@+++@@..................#@o##OO",
"O@Oo+Oo++@o+  +o@##@+o.oo.o.o.o.o.o.o.o.oO@++#+O",
"O@O@@+OOOOo    O+OOooo@.XXXXXXXXXXXXXXXXX@+OoO++",
"#@@@+@Oo+XX   +#oOO+ooo.+XXXXXXXXXXXXXXXXXO+O#@+",
"++#O#oOOXXX   +O#+@+o@o.o+XXXXXXXXXXXXXXXXXXX+@O",
"+#@OOO#+XX     OOO##@#@.@o                XXXXX@",
"@@@OXXXXX      ##O++O@@oo.+                  XX+",
"O#oXXXXX       #+O#O@++o.@o                  XXO",
"@@XXXX          #@++@+O@@.+                  X#@",
"@#XXX           +O+O+@##@o                   X+O",
"@.#oo             +##O++#                     X+",
"o@@...o                                       X+",
"@oo......o                                     +",
"o....Xooo...o                      oo.o......o##",
"o#..oXXX+Xo..oooo +            o oo......o...#@#",
"@o..oX#X#X#..o..o.@o@o@o@@o@@oooo..oo++++X..o+o#",
"o.o..oXXXXo..o@@..o@.@o..@.o@o..o...XXXXX+..#@O@",
"o.o...#o#...ooooo##oo#.O#@@#.@oo.o...oXoo...#o#O",
"@o.o.......o#O+++oOo@O++@+@@+#oo@.o........Xo@O@",
"@o.@o.....oO@o+##+OO@OO@O@++@+@oo.@o.....o#+@OO@",
"@@@..@oo#o@#OOO++@+#OOO@+#OO#+@o@@@.oooooo@O++O+",
"@o@.@oo.oo#@#O@+##++@O@#+#@+O@O+o@.o@.@@@#OO+#O+",
"++#@o@@o#@+OO++##OO+OOo+o+O@++OO@#@@#@oo@#+OOo#O",
"+#O+OO##oO@#+#@+O@OOO+OO+o+OOO####O#@#+OO#O++@Oo",
"O+Oo+#OOO+OO+OOO#+O+O@OOOO+@#@O+@#o+oO+#@#OOOOO+",
"o#O+@+@o+@OOO#O###++#O+O+O++OO+#@#+oO@#O@@@++@O+",
"OOO+Oo@o#O+#O@oO#+O@oO@+O#+OO#O@####o+O+O#oO#@O#",
"O+O+Oo#++#@O+##O#+#@Oo+#++#+++O##OO+OO++O+Oo##+o",
"O@+#O+@+@OO+##o#OOo@O@++@@#+O#@O+O#++O@O++#Oo@OO",
"#+O#O#O@@++#OO+O#OO++#O#+Oo@o@@+#@#@O#@ooO@O#O++"
};
