/* XPM */
static char *_613c5a37c0a44158bc6da7d0eaa29caRqMbWAphvJDCOnZO[] = {
/* columns rows colors chars-per-pixel */
"48 48 16 1 ",
"  c #9FA088",
". c #F8F7EA",
"X c #858677",
"o c #5C6750",
"O c #5C9866",
"+ c #2E8850",
"@ c #E1CDB2",
"# c #A67052",
"$ c #C0B1A5",
"% c #0B2815",
"& c #A45233",
"* c #115D38",
"= c #6E2D1A",
"- c #067E48",
"; c #4D4633",
": c #C87B55",
/* pixels */
"$ O   O   O   O   O   $$ O+O+O+O+O+O+O+O+O+O++ $",
"+--------------------- $X*****-***-***-*******X$",
"++++++++++O+OOOOOOOOOO$@OOoOOo+oO+o+++**---*-*X$",
"+++++-+OO $$$$@@@@@@@$@@@$@$$@$@$@$$$ $ Oo*-**+$",
"+++++O$@::##&&&=&&&&=&;&=&&=&&&&&&&&&&#::$@O-*X$",
"+++++$&==;;;;;oooooooooooo;oooooo;o;;;;===&:o*+$",
"++++X:=oX $@@@@$ Xoo;;;;%;*;;;oo $@@@@$$Xo=& *X$",
"++++X&:@@...@ *%%%%%%%%%%%%%%%%%%%;X@....@$&:+O$",
"*-**:&@....X%%%%%%%%%%%%%%%%%%%%%%%%%o@...@#:o+$",
" *O*:#@...;%%%%%%%%%%%%%%%%%%%%%%%%%%%%@..@::o $",
"$$ X:#@..o%%%%%%%%%%%%%%%%%%%%%%%%%%%%%*@..::$$$",
"$$ X:#@. %%%%%%%%%%%%%%%%%%%%%%%%%%%%%%%o..:#$$$",
"XXXo:#@.%%%%%%%%%%%%%%%%%%%%%%%%%%%%%%%%%$. &   ",
"OO+o:#. %%%%%%%%%%%%%%%%%%%%%%%%%%%%%%%%%o.:& OO",
"OO+o:#.o%%%%%%%%%%%%%%%%%%%%%%%%%%%%%%%%%%. & OO",
"OO+o#:@%%%%%%%%%%%%%%%%%%%%%%%%%%%%%%%%%%%$ : OO",
"OOOo:#@%%%%%%%%%%%%%%%%%%%%%%%%%%%%%%%%%%% :& OO",
"OO+o:: %%%%%%%%%%%%%%%%%%%%%%%%%%%%%%%%%%%X : OO",
"OO+o:: %%%%%%%%%%%%%%%%%%%%%%%%%%%%%%%%%%%X & OO",
"OOoO#: %%%%%%%%%%%%%%%%%%%%%%%%%%%%%%%%%%%o & OO",
"++*o: X%%%%%%%%%%%%%%%%%%%%%%%%%%%%%%%%%%%o$:O+O",
"+*-;:: %%%%%%%%%%%%%%%%%%%%%%%%%%%%%%%%%%%o$&o*O",
"$$XX:: %%%%%%%%%%%%%%%%%%%%%%%%%%%%%%%%%%%#$&@$$",
"$$ X::$%%%%%%%%%%%%%%%%%%%%%%%%%%%%%%%%%%%X$:$$$",
" Xoo# @%%%%%%%%%%%%%%%%%%%%%%%%%%%%%%%%%%% $&  $",
"+-*o&:.;%%%%%%%%%%%%%%%%%%%%%%%%%%%%%%%%%%@$&XX$",
"++-o##.o%%%%%%%%%%%%%%%%%%%%%%%%%%%%%%%%%;.@&OX$",
"++*o##.@%%%%%%%%%%%%%%%%%%%%%%%%%%%%%%%%%X.$&XX$",
"++-o:#..;%%%%%%%%%%%%%%%%%%%%%%%%%%%%%%%%@.:&OO$",
"++*o#:..$%%%%%%%%%%%%%%%%%%%%%%%%%%%%%%%X..$:oX$",
"+++*:#...X%%%%%%%%%%%%%%%%%%%%%%%%%%%%%o...:&OX$",
"++*o:#@... %%%%%%%%%%%%%%%%%%%%%%%%%%%o....::OX$",
"*--*::.....@o%%%%%%%%%%%%%%%%%%%%%%%;$.....:&oX$",
"O**%::@......@Xo%%%%%%%%%%%%%%%%%;X$.......::oO$",
"$ XX:::..........@$  XXXXXXXX $@..........@:& $$",
"$$ X:::::$:@$@@@@@@@@@@@@@@@@@@@@@@@@$$::::::$$$",
"  Xo:&===#&===========================&#;==&:$X ",
"+-**:=%#...@&=========&=========&==== ... %=&O-+",
"+++*:==.....@=&&:&&&#:&######&&&&&&& .....&=:O++",
"++-o#=&.....@#&&&&oo#oo#oooooo;;&&:&$..... =&O++",
"+++*#=;@....$&&&Xo;;;=;;;=;=;=;;;=:&:.....:=&O++",
"++**X&=o...@&&&#o=;;;;;=;;;;;;;=;=&&& ...X==:O++",
"+++*o&&=;X#;=&&oo;;=;;;;;;;=;;;;;;;=&=#Xo==&:+++",
"+++*%o###=&&##:::#:#:########:#:::::#&=&&#:X++++",
"+-+**%*%o==X;*o*ooooooooo;oooooo*ooo;o==o%**--++",
"*****%%%%oXoo%%%%%%%%%%%%%%%%%%%%%;o;%oo*%******",
"$$$$$$  ooXXX   XXXXXXXXXXXXXXXXXX XXo;XX X  $  ",
"$@$$$$$$   $$$$ $$$$$$$$$$$$$$$$$$ $ X  $$$$$$$$"
};
