/* XPM */
static char *a9b4145735f54c8ecb8e27b1b0bca506GW1Lo658PVrIubB0[] = {
/* columns rows colors chars-per-pixel */
"48 48 15 1 ",
"  c #057947",
". c #5A9B66",
"X c #0D6039",
"o c #2E8A51",
"O c #C3B8B6",
"+ c #B7ADAC",
"@ c #BEB3B2",
"# c #AEA39E",
"$ c #7C8D6D",
"% c #01844B",
"& c #929B85",
"* c #8EA67A",
"= c #969F88",
"- c #B9B0AE",
"; c #A89E99",
/* pixels */
"-*.***.***.***.***.**=@@#.o.o.o.o.o.o.o.o.o.oo#+",
"o%%%%%%%%%%%%%%%%%%%  &@$XXXXX XXX XXX XXXXXXX$-",
"ooooooooooooooooooooo #@oXX% XXX XX %XXX % X%X$@",
"ooooo%oo%ooo%ooo%oo%o =O$X%XX%X%X%X%X %X%XX%XXo-",
"ooooooooooooooooooooo #O$XX% X% X% X%X% X% X%X$@",
"ooooooooooooooooooooo =O$X%XX%XX%XX%XXXX%XX%XXo-",
"oooooooooo%ooooo%oooo #@oXX% X% X% X% %X %X%XX$@",
"ooooooooooooooooooooo =O$X%XX%XX%XX%XX%X%X XX%$@",
"X%X%X%X%X%X%X%X%X%X%XX#@oXXXXXXXXXXXXXXXXXXXXXo@",
"=X.X.oooooooooooooooX$;@;oXX.XX.XX.XXoXX.XX.XX;+",
"-@@@;@;@;@;@;@;@;@;OO@-+++@@@@#@O@@@@@O@@@@@@-++",
"@@@@@@@@@@+++@@@@@@@@@@@@@@@@@@@@@-+-@-@@@@@@@--",
"$$$$$$$$$$@-;$$$$$$$$$$$$$$$$$$$$$;+;&=$==$==$==",
"..........&-$X                    $-&...........",
"..........#@$ %o%o%o%o%o%o%o%o%o  =@&...........",
"..........&@$ ooooooooooooooooooo $@=...........",
"..........#O$ ooooooooooooooooooo =@&...........",
"..........&@$ ooooooooooooooooooo $@=...........",
"..........#O$ ooooooooooooooooooo =O&...........",
"..........&O$ ooooooooooooooooooo $O=...........",
"oooooooooX&@oX%X%%X%%X%%X%%X%%X% X$@$ ooooooooo.",
"oXoXoXXoXo;@;XXoXXoXXoXXoXXoXXoXXX;-;oXXoXoXoXX.",
"@@@@O@@@@@++++@@@@@@@@@@@@@@@@@@@@-+++@@@@@@@@@@",
"@@@@@@@@@@@@@@@@@@@@@@+-+@@@@@@@@@@@@@@@@@@@@@-+",
"#$$$$$$$$$$$$$$$$$$$$&--;$$$$$$$$$$$$$$$$$$$$$;+",
"o                     ;@$                     $+",
"oooooooooooooooooooooo=@$ ooooooooooooooooooo $-",
"ooooooooooooooooooooo &O$ ooooooooooooooooooo $-",
"ooooooooooooooooooooo #O$ ooooooooooooooooooo $-",
"ooooooooooooooooooooo &O$ ooooooooooooooooooo $-",
"ooooooooooooooooooooo #O$ ooooooooooooooooooo $-",
"ooooooooooooooooooooo =O$ ooooooooooooooooooo $-",
"X%%%%%%%%%%%%%%%%%%% X&@$X %%%%%%%%%%%%%%%%% X$-",
".XXXXXXXXXXXXXXXXXXXXX-@&XXXXXXXXXXXXXXXXXXXXX$+",
"@;########;#;#######;@-++;;#######;#;########;-+",
"@@@@@@@@@--+-@-@@@@@@----@@@@@@@---+-@@@@@@@@@@-",
"==$=$=$=$&-+-&==================&&---&$=$=$=$=$=",
"o         ;-&....................o&@&          o",
"ooooooooo =-&....................$&@$ oooooooooo",
"ooooooooo &@=.....................&@= oooooooooo",
"ooooooooo =@&.....................=@$ oooooooooo",
"ooooooooo #@=.....................&@= oooooooooo",
"ooooooooo =@&.....................=O$ oooooooooo",
"ooooooooo =@=.....................&O= oooooooooo",
"o%o%o%o%oX=@$.....................$O$ o%%%%o%%oo",
"XXXXXXXXXX#O=XXXXXXXXXXXXXXXXXXXXX$-&XXXXXXXXXXX",
"OOOOOOOOOOO#+@@+###############;;;+++;;#;;#;;#;#",
"OOOOOOOOOOOOOOO#@+++++++++++++++++++++++++++++++"
};
